<svg width="24" height="24" viewBox="0 0 24 24" fill="none" xmlns="http://www.w3.org/2000/svg">
<mask id="mask0_237_9597" style="mask-type:alpha" maskUnits="userSpaceOnUse" x="0" y="0" width="24" height="24">
<rect width="24" height="24" fill="#D9D9D9"/>
</mask>
<g mask="url(#mask0_237_9597)">
<path d="M10.9 8.05156H14V11.1516L10.9 8.05156ZM14 11.1516L18 8.00156V15.1516L14 11.1516ZM21.75 18.9016C21.8333 18.7516 21.8958 18.6016 21.9375 18.4516C21.9791 18.3016 22 18.1516 22 18.0016V6.00156C22 5.45156 21.8041 4.98073 21.4125 4.58906C21.0208 4.1974 20.55 4.00156 20 4.00156H6.84995L8.84995 6.00156H20V17.1516L21.75 18.9016ZM3.99995 4.00156L5.99995 6.00156H3.99995V18.0016H15.15L13.15 16.0016H5.99995V8.85156L0.699951 3.50156L2.09995 2.10156L21.9 21.9016L20.5 23.3016L17.15 20.0016H3.99995C3.44995 20.0016 2.97912 19.8057 2.58745 19.4141C2.19578 19.0224 1.99995 18.5516 1.99995 18.0016V6.00156C1.99995 5.45156 2.19578 4.98073 2.58745 4.58906C2.97912 4.1974 3.44995 4.00156 3.99995 4.00156Z" fill="#F3F3F4"/>
</g>
</svg>
