<?xml version="1.0" encoding="UTF-8"?>
<svg id="Layer_1" xmlns="http://www.w3.org/2000/svg" version="1.1" viewBox="0 0 860 348.89">
  <!-- Generator: Adobe Illustrator 30.3.0, SVG Export Plug-In . SVG Version: 2.1.3 Build 182)  -->
  <defs>
    <style>
      .st0 {
        fill: #111;
      }

      .st1 {
        isolation: isolate;
      }

      .st2 {
        fill: #fff;
      }
    </style>
  </defs>
  <g>
    <path class="st0" d="M762.55,93.33c-20.07,0-36.39-16.32-36.39-36.39s16.33-36.39,36.39-36.39,36.39,16.32,36.39,36.39-16.33,36.39-36.39,36.39ZM762.55,27.48c-16.24,0-29.46,13.22-29.46,29.46s13.22,29.46,29.46,29.46,29.46-13.22,29.46-29.46-13.22-29.46-29.46-29.46Z"/>
    <g class="st1">
      <g class="st1">
        <path class="st0" d="M763.16,42.4c-5.98,0-9.61,4.52-9.61,12.4s3.74,12.4,9.55,12.4c4.36,0,7.37-2.35,8.1-6.31l9.61.06c-.78,7.2-6.92,14.63-17.87,14.63s-19.1-7.48-19.1-20.77,8.32-20.77,19.1-20.77c9.72,0,16.87,5.47,17.87,15.13h-9.61c-.56-4.13-3.52-6.76-8.04-6.76Z"/>
      </g>
    </g>
    <g>
      <path d="M10.64,262.38c0-28.42,18.38-45.26,47.27-45.26,13.75,0,25.8,5.1,35.69,16.99l-15.91,18.23c-7.11-7.72-12.05-10.51-20.24-10.51-10.04.15-20.08,8.34-20.08,20.55s9.73,20.7,20.39,20.7c8.81,0,14.52-4.02,20.55-10.51l15.76,18.07c-9.27,12.05-22.25,17.15-36.15,17.15-28.27.15-47.27-15.29-47.27-45.42Z"/>
      <path d="M147.98,307.17c-27.03,0-46.19-17.77-46.19-44.65s20.85-44.64,46.19-44.64,46.19,16.68,46.19,44.64-19.16,44.65-46.19,44.65ZM147.67,282.77c10.35,0,19.77-6.64,19.77-20.24s-9.42-20.24-19.77-20.24-19.16,7.26-19.16,20.24,9.11,20.24,19.16,20.24Z"/>
      <path d="M204.21,305.17v-84.96h26.11v5.25c6.8-4.79,12.98-6.64,20.55-7.42h1.7c10.51,0,17.61,3.71,21.78,9.73,7.11-5.41,17.46-9.73,23.64-9.73h2.63c19.77,0,29.66,12.2,29.66,32.9v54.22h-25.64v-40.32c0-16.99-4.48-20.85-11.74-20.55-5.25.15-8.19,1.54-11.74,4.63.15,1.39.15,2.94.15,4.33v51.91h-25.49v-40.32c0-15.91-4.48-20.85-11.9-20.55-6.02.15-9.27,2.16-13.59,5.72v55.15h-26.11Z"/>
      <path d="M342.79,305.17v-84.96h26.11v5.25c6.8-4.79,12.98-6.64,20.55-7.42h1.7c10.51,0,17.61,3.71,21.78,9.73,7.11-5.41,17.46-9.73,23.64-9.73h2.63c19.77,0,29.66,12.2,29.66,32.9v54.22h-25.64v-40.32c0-16.99-4.48-20.85-11.74-20.55-5.25.15-8.19,1.54-11.74,4.63.15,1.39.15,2.94.15,4.33v51.91h-25.49v-40.32c0-15.91-4.48-20.85-11.9-20.55-6.02.15-9.27,2.16-13.59,5.72v55.15h-26.11Z"/>
      <path d="M558.3,220.2v84.96h-27.03v-4.94c-3.86,3.24-10.66,6.33-18.07,6.95h-2.01c-20.7,0-29.82-13.13-29.82-33.52v-53.45h27.03v41.86c0,15.6,4.63,19.16,10.81,19,5.41-.15,8.8-1.7,12.05-5.25v-55.61h27.03Z"/>
      <path d="M574.5,305.17v-84.96h27.03v4.94c3.86-3.24,11.59-6.33,19-6.95h2.47c20.7,0,30.28,13.9,30.43,35.07v51.91h-27.03v-40.32c0-17.76-4.33-20.85-11.9-20.55-5.87.31-8.5,1.85-12.98,5.25v55.61h-27.03Z"/>
      <path d="M695.51,211.24h-26.73v-20.7h26.73v20.7ZM668.78,220.2h26.73v84.96h-26.73v-84.96Z"/>
      <path d="M744.01,269.48c0,6.49.77,9.58,4.17,10.81,2.32.77,4.32.62,9.27-1.08l4.48,23.64c-8.03,3.71-21.01,5.1-30.12,1.54-10.66-4.32-14.52-13.75-14.52-29.97v-30.12h-13.9v-24.1h13.9v-29.66h26.72v29.66h17.3v24.1h-17.3v25.18Z"/>
      <path d="M797.31,285.55l-33.21-65.35h30.59l16.68,34.91,14.52-34.91h29.97l-48.04,108.14-26.88-7.57,16.37-35.22Z"/>
    </g>
  </g>
  <g>
    <path class="st0" d="M143.93,142.22l-24.78.46-.07,39.33-31.34-.17-.03-138.37,63.1.29c22.27.1,38.59,20.93,40.25,42.15,4.58,29.67-16.79,55.75-47.12,56.31h0ZM139.94,113.72c12.51-.14,21.15-11.17,20.18-23.17-.81-10.63-9.74-18.01-20.2-17.82l-20.59.36.03,40.86,20.57-.22Z"/>
    <path class="st2" d="M616.24,229.38c-11.98-.29-25.3-3.74-37.28-9.18l19.41-32.42c6.99,2.07,14.42,9.31,20.84,6.61,12.64-5.29,16.59-18.52,10.56-29.27l-44.64-100.17,40.06-.37,27.75,68.92,27.54-68.89,33.73.23-51.5,134.87c-8.63,17.24-25.53,30.14-46.46,29.65h0Z"/>
    <path class="st0" d="M618.15,220.67c-9.9-.27-18.71-.71-28.6-5.75l14.29-25.43c5.77,1.92,12.12,3.84,17.42,1.34,10.44-4.91,13.7-17.16,8.73-27.13l-36.87-92.84,33.09-.34,22.92,63.88,22.75-63.85,33.48.25-48.16,124.96c-7.13,15.97-21.76,25.36-39.04,24.9h.02Z"/>
    <path class="st0" d="M459.1,182.76c-25.09-3.26-43.49-21.86-47.75-46-5.43-30.73,14.53-60.13,45.33-65.51,17.71-3.09,34.99,2,48.01,13.6,12.77,11.37,19.51,27.76,18.42,45.7-1.97,32.64-30.79,56.53-63.98,52.22h-.02ZM487.79,142.78c6.48-9.68,6.4-23.17.08-32.27-9-12.94-28.09-14.31-39.06-3.07-10.69,10.93-10.05,29.42,1.17,39.88,10.88,10.13,29.25,8.27,37.82-4.53h-.02Z"/>
    <path class="st0" d="M307.64,150.9c4.58-2.41,8.28-5.25,11.7-8.13l9.88,8.59,11.71,9.9c-13.16,16.3-31.64,23.43-52.23,21.58-28.25-2.55-49.54-25.85-50.03-54.39-.25-14.92,4.04-28.98,14.28-39.98,22.14-23.8,60.13-24.39,83.23-.9l-22.27,20.4c-9.49-10.69-27.03-11.59-37.3-.95-8.06,8.35-9.23,20.9-4.97,31.56,5.64,14.09,22.37,19.47,35.99,12.34l.02-.02Z"/>
    <path class="st0" d="M408.49,152.02l2.22,28.69c-8.45,1.63-16.82,2.8-25.33,1.41-17.94-2.94-32.47-17.35-32.66-35.77l-.44-44.65-11.19-.42v-30.2l11.14-.2.03-27.4,30.59-.2.29,27.7,21.86.17v30.22l-21.95.12v36.07c0,6.09,4.01,11.68,8.05,14.02,5.62,3.26,11.44,2.72,17.38.41v.03Z"/>
    <path class="st0" d="M560.92,182.17l-30.64.19.19-58.02c.03-12.7,7.06-23.53,14.62-33.14,10.61-12.38,24.75-20.13,41.79-20.32l.15,29.89c-13.09-.59-25.38,8.11-25.51,21.98l-.61,59.42h.02Z"/>
    <polygon class="st0" points="230.55 182.08 199.88 182.03 200 70.45 230.61 70.57 230.55 182.08"/>
    <path class="st0" d="M225.8,59.57c-8.95,6.64-21.44,3.6-25.29-6.09-2.65-6.65-.81-14.51,4.74-18.81,6.89-5.33,17.98-4.46,23.17,2.61,5.02,6.86,4.29,17.18-2.61,22.29Z"/>
  </g>
</svg>